<svg width="67" height="67" viewBox="0 0 67 67" fill="none" xmlns="http://www.w3.org/2000/svg">
<g filter="url(#filter0_d_7_54)">
<path d="M34.5958 15.5542C34.3052 15.2636 33.911 15.1003 33.5 15.1003C33.089 15.1003 32.6948 15.2636 32.4041 15.5542L21.5541 26.4042C21.2718 26.6965 21.1155 27.088 21.1191 27.4944C21.1226 27.9008 21.2856 28.2896 21.573 28.577C21.8604 28.8644 22.2491 29.0274 22.6555 29.0309C23.062 29.0344 23.4535 28.8782 23.7458 28.5959L24.2 28.1417V38.35C24.2 38.7611 24.3633 39.1553 24.654 39.446C24.9446 39.7367 25.3389 39.9 25.75 39.9H28.85C29.2611 39.9 29.6553 39.7367 29.946 39.446C30.2367 39.1553 30.4 38.7611 30.4 38.35V35.25C30.4 34.8389 30.5633 34.4447 30.854 34.154C31.1446 33.8633 31.5389 33.7 31.95 33.7H35.05C35.4611 33.7 35.8553 33.8633 36.146 34.154C36.4367 34.4447 36.6 34.8389 36.6 35.25V38.35C36.6 38.7611 36.7633 39.1553 37.054 39.446C37.3446 39.7367 37.7389 39.9 38.15 39.9H41.25C41.6611 39.9 42.0553 39.7367 42.346 39.446C42.6367 39.1553 42.8 38.7611 42.8 38.35V28.1417L43.2541 28.5959C43.5465 28.8782 43.938 29.0344 44.3444 29.0309C44.7508 29.0274 45.1396 28.8644 45.4269 28.577C45.7143 28.2896 45.8773 27.9008 45.8809 27.4944C45.8844 27.088 45.7282 26.6965 45.4458 26.4042L34.5958 15.5542V15.5542Z" stroke="#ADADAF" stroke-width="2"/>
</g>
<defs>
<filter id="filter0_d_7_54" x="-2" y="-2" width="71" height="71" filterUnits="userSpaceOnUse" color-interpolation-filters="sRGB">
<feFlood flood-opacity="0" result="BackgroundImageFix"/>
<feColorMatrix in="SourceAlpha" type="matrix" values="0 0 0 0 0 0 0 0 0 0 0 0 0 0 0 0 0 0 127 0" result="hardAlpha"/>
<feOffset dy="6"/>
<feGaussianBlur stdDeviation="10"/>
<feColorMatrix type="matrix" values="0 0 0 0 0.841667 0 0 0 0 0.219258 0 0 0 0 0 0 0 0 0.4 0"/>
<feBlend mode="normal" in2="BackgroundImageFix" result="effect1_dropShadow_7_54"/>
<feBlend mode="normal" in="SourceGraphic" in2="effect1_dropShadow_7_54" result="shape"/>
</filter>
</defs>
</svg>
